<?xml version="1.0" encoding="utf-8"?>
<!-- Generator: Adobe Illustrator 23.0.2, SVG Export Plug-In . SVG Version: 6.00 Build 0)  -->
<svg version="1.1" id="Opmaak" xmlns="http://www.w3.org/2000/svg" xmlns:xlink="http://www.w3.org/1999/xlink" x="0px" y="0px"
	 width="300px" height="79.45px" viewBox="0 0 300 79.45" style="enable-background:new 0 0 300 79.45;" xml:space="preserve">
<style type="text/css">
	.st0{fill:#75B726;}
	.st1{fill:#FF8C2D;}
	.st2{fill:#F18700;}
</style>
<g>
	<path class="st0" d="M61.43,50.85c-1.09-3.53-4.27-6.04-9.44-7.5c-0.04-0.62-0.18-1.44-0.48-2.39c0.07-0.48,0.07-0.99,0.3-1.01
		c-0.4-0.49-0.61-1.25-0.93-2.11c-0.18-0.41-0.38-0.85-0.64-1.26c-0.27-0.4-0.63-0.76-1.05-1.05c-0.19-0.41,0.35,0.2,0.29-0.06
		c-0.46-0.29-0.9-0.69-1.59-1.57l0.12,0.06c-0.53-0.59-1.06-0.99-1.49-1.44c-0.44-0.44-0.87-0.81-1.31-1.19
		c-0.44-0.37-0.87-0.8-1.4-1.2c-0.54-0.4-1.13-0.84-1.83-1.36l0.09,0.34c-0.6-0.45-0.72-0.56-0.98-0.8
		c-0.46-0.06-0.01,0.21,0.44,0.48c0.45,0.29,0.89,0.62,0.46,0.56c-0.26-0.51-1.43-1.13-2.52-1.79c-1.1-0.64-2.22-1.16-2.39-1.57
		c-1.03-0.52,0.18,0.4-0.84-0.12l-0.21-0.27l-0.34,0.05c-0.67-0.32-0.95-0.64-0.92-0.77c0.16,0.09,0.49,0.17,0.67,0.24
		c-0.83-0.55-2.55-1.03-2.84-1.22l0.98,0.52c-1.45-0.59-3.09-1.13-4.7-1.75c-1.62-0.56-3.26-1.02-4.73-1.34l0.18,0.18
		c-0.32-0.08-0.58-0.14-0.82-0.2c-0.28-0.08-0.51-0.14-0.72-0.2c-0.42-0.12-0.73-0.24-1.06-0.36c-0.3-0.06-0.84-0.51-0.82,0.17
		c-0.11,0.46-0.24,1.09-0.4,1.97l0-0.14c-0.01,0.19-0.03,0.38-0.05,0.58c-0.01,0.16-0.03,0.33-0.04,0.5c-0.03,0.32-0.07,0.66-0.13,1
		c-0.04-0.66-0.43,1.16-0.45,0.3c-0.09,2.53,0.01,1.26,0.27,2.94l-0.21,0.37c0.13,0.57,0.21,0.62,0.21,1.88
		c-0.13-1.04-0.31,0.8-0.48-0.37c-0.49,2.68,0.44,3.94-0.06,5.2c0.31,0.59,0.33,0,0.3-0.64c-0.02-0.64-0.09-1.35-0.02-1.01
		c0.15-0.58,0.42,0.98,0.47,1.81c0.09,0.83-0.54,1.51-0.08,3.65c-0.05-0.21-0.09-0.22-0.13-0.43c0.04,0.83,0.52,1.52,0.61,2.54
		c0.46,0.44,0.41,1.25,0.85,1.26c-0.28-0.6-0.51-1.23-0.73-1.86c0.43,1.06,1.17,1.89,1.8,3.61c-0.14-0.09-0.49-0.53-0.69-0.86
		c0.11,0.55,0.53,0.91,0.69,1.47c-0.2,0.02-0.54-0.5-0.86-1.18c-0.33-0.67-0.64-1.49-0.97-2.03c0,0.64,1.12,2.06,0.47,1.66
		c0.85,0.58,0.88,2.05,2.11,3.07l-0.25,0.06c0.17,0.18,0.55,0.52,0.84,0.86c-0.25-0.14-0.51-0.28-0.75-0.45
		c0.95,0.83,1.39,2.02,2.45,2.7c-0.98-0.83-1-1.01-0.91-1.04c0.1-0.04,0.33,0.03,0.02-0.4c1.19,0.96,1.46,1.3,1.75,1.75
		c0.28,0.38,0.59,0.89,1.95,1.53c-0.49-0.27-1.1-0.76-0.52-0.55c0.56,0.36,1.33,0.8,1.67,1.05c2.21,0.71-0.26-0.34,0.72-0.16
		c0.65,0.51,1.11,0.22,2.07,0.32l-0.04,0.24c1.25,0.3,1.44,0.16,1.59,0.06c0.15-0.12,0.26-0.2,1.38-0.05
		c-0.32,0.09-0.65,0.2-0.98,0.28c0.4,0,0.8,0,1.19-0.03l-0.25,0.27c1.31-0.18,1.7-0.15,2.97-0.17c-0.31-0.15,0.13-0.43,1.21-0.59
		c0.76,0.04-0.38,0.3,1.15,0.02c-0.32,0.2-0.68,0.47-1.39,0.32c-0.06,0.09-0.33,0.19-0.39,0.28c0.84,0.08,2.05-0.25,2.6-0.37
		c-0.22,0.03-0.48,0.07-0.62,0.06c0.73-0.25,1.44-0.51,2.15-0.8c0.37,0,0.11,0.14-0.14,0.28c0.44-0.14,0.72-0.31,1.36-0.51
		c-0.12,0.23-0.02,0.43-0.93,0.75c0.69-0.24,1.36-0.5,2.03-0.78c0.16,0.05,1.13-0.1,0.88,0.05c1.19-0.25,2.64-1.3,4.15-1.75
		c0.06-0.07,0.2-0.16,0.49-0.32c0.33-0.12,0.66-0.24,0.99-0.35c0.11-0.01,0.2-0.07,0.3,0.01c0.06,0.03,0.05,0.03,0.18,0.08
		c0.16,0.06,0.32,0.12,0.48,0.19c0.33,0.12,0.67,0.24,1.03,0.37c0.2,0.24,0.38,0.48,0.53,0.73c0.47,0.28,0.32,0.04,0.24-0.16
		c-0.1-0.19-0.07-0.39,0.73,0.16c0.55,0.4,0.55,0.56,0.49,0.64c-0.07,0.08-0.22,0.1-0.11,0.29c0.25,0.17,0.61,0.42,0.87,0.83
		c0.14,0.2,0.22,0.44,0.27,0.71c0.08,0.26,0.05,0.56-0.01,0.85c-0.05-0.19-0.05-0.36-0.06-0.53c-0.04-0.16-0.06-0.31-0.11-0.47
		c0,0.29,0,0.56-0.07,0.86c-0.41-0.97-0.56-1.45-0.61-0.78c0.17-0.03,0.29,0.14,0.4,0.41c0.06,0.29,0.13,0.68,0.08,1.12
		c0,0.42-0.13,0.87-0.14,1.22c-0.06,0.36-0.05,0.63,0.11,0.71c-0.1,0.2-0.23,0.39-0.36,0.58c0.08-0.18,0.05-0.22,0.12-0.39
		c-0.78,1.07,0.14,1.09-0.75,2.61c-0.33,0.51-0.65,0.82-0.51,0.42c-0.18,0.42-0.37,0.83-0.57,1.24c-0.23,0.33-0.27,0.18-0.05-0.14
		c-0.36,0.59-0.75,1.17-1.16,1.73l-0.01-0.02c-0.09,0.31-0.39,0.94-0.54,1.24c-0.42,0.35,0.12-0.25-0.04-0.2
		c-0.21,0.33-0.41,0.67-0.63,0.99c-0.45,0.23,0.07-0.59,0.59-1.19c-1.23,0.39-0.44,0.85-2.39,2.28l0.71-0.86
		c-0.77,0.24-1.27,0.97-2.33,1.63c0.3-0.09,2.2-1.29,1.42-0.28c-0.29,0.21-0.64,0.53-1.05,1.09c-0.17-0.17-0.62,0.32-1.24,0.88
		l-0.17-0.28c-0.63,0.64-0.46,0.73-0.79,1.17c-0.8,0.6-1.13,0.52-1.44,0.49c-1.31,0.91,1.13-0.33-0.37,0.84
		c-1.16,0.67-1.86,1.3-3.15,2.27c-0.87,0.36,0.05-0.25-0.29-0.17l-0.6,0.63c-0.18,0.09-0.16-0.01-0.15-0.06
		c-0.57,0.41,0.1,0.31-0.84,0.9c-0.06,0.22-0.62,0.37-1.32,0.54c-0.17,0.05-0.34,0.09-0.52,0.14c-0.12,0.02-0.24,0.05-0.35,0.09
		c-0.06,0.02-0.11,0.04-0.17,0.06c-0.06,0.03-0.11,0.05-0.15,0.02c-0.09-0.02-0.19-0.03-0.3-0.03c-0.14-0.16,0.15-0.15,0.13-0.29
		c-0.06,0.01-0.32-0.08-0.48-0.12c-0.17-0.05-0.31-0.09-0.44-0.13c-0.26-0.07-0.44-0.12-0.62-0.17c-0.35-0.11-0.66-0.19-1.43-0.39
		c-0.36-0.27-0.72-0.52-1.06-0.82c0.71,0.71-0.49,0.32-1.56-0.04c0.04,0.04,0.07,0.08,0.1,0.12c-0.11-0.07-0.22-0.13-0.33-0.2
		c0.08,0.03,0.15,0.05,0.23,0.08c-0.04-0.05-0.09-0.1-0.14-0.16c-0.11-0.01-0.2-0.03-0.29-0.04c-0.24-0.15-0.47-0.32-0.71-0.48
		c0.05-0.08,0.3-0.05,0.58,0.01c0.14,0.17,0.28,0.35,0.42,0.51c0.48,0.06,0.93,0.08,0.95-0.13c-0.12-0.03-0.32-0.11-0.53-0.22
		c0.12,0.01,0.21,0.01,0.18-0.05c-0.03-0.06-0.22-0.09-0.51-0.17l-0.13-0.52l-0.16,0.07c-0.58-0.49-1.18-0.94-1.72-1.47
		c-0.74-0.35-1.5-0.6-2.29-1.04c-0.4-0.21-0.82-0.45-1.27-0.73c-0.43-0.3-0.9-0.65-1.4-1.08c0.65,0.25,0.4-0.22,0.64-0.41
		c0.14,0.36,0.53,0.68,1,1.02c0.48,0.33,1.05,0.67,1.53,1.13c-0.51-0.48-0.3-0.49-0.13-0.42c-0.67-0.43-1.34-0.86-1.97-1.34
		c0.21-0.15-0.24-0.48-0.61-0.98c-0.02,0.69-1.49-1.02-2.24-1.64c0.09-0.16,0.35-0.08,1.14,0.79c-0.63-1.18-1.57-0.85-2.19-2.02
		c0.19,0.21,0.28,0.35,0.42,0.38c-0.58-0.39-1.5-1.79-1.14-1.57l0.18,0.22c-1.19-1.5-3.44-4.71-3.91-4.76
		c0.04-0.05,0.57-0.06,0.7-0.01l-1.52-1.08l-0.57-0.44c-0.18-0.31-0.36-0.63-0.54-0.94c0.27-0.31,0.57-0.73,1.25,0.16
		c-0.18-0.42-0.42-0.93-0.98-1.72c0.1,0.3-0.1,0.94-0.33,0.58c-0.1-0.62-0.15-0.82-0.22-1.05c-0.09-0.28-0.18-0.59-0.45-1.46
		c0.12,0.34-0.03,0.41-0.24,0.32c-0.22-0.1-0.48-0.31-0.66-0.71c0.12,0.04,0.3-0.67,0.52-0.37c-0.26-0.32-0.5-0.6-0.73-0.84
		c-0.41,0.27-0.8,0.59-1.14,0.86c0.51-0.37,0.19-0.63-0.46-0.49c0.16-0.01-0.45,0.28-1.08,0.58c-0.69,0.33-1.52,0.71-1.82,0.89
		l1.19-0.44c-0.72,0.33-1.2,0.61-1.52,0.84c0.3,0.44,0.58,0.78,0.85,1.08c0.54,0.61,0.98,1.03,1.43,1.94
		c-0.22-0.17-0.94-0.22-0.48,0.76c0.26,0.16,0.89,0.51,1.58,1.01c0.39,0.69,0.79,1.36,1.2,2.02c-0.85-0.66-1.77-1.45-2.33-2.05
		c0.28,0.76-0.08,0.3,0.54,1.33c0.09,0.44-0.55-0.44-0.71-0.75c0.42,0.84,0.9,1.64,1.35,2.47c0.2-0.27,1.45,1.62,1.63,1.37
		c-0.66-0.77-1.31-1.56-1.92-2.38c0.22-0.27,1.71,1,2.76,2.65c0.16,0.49-0.7,0.03-0.77,0.12c0.22,0.16,1.26,1.41,1.3,1.6l-0.64-0.58
		c0.55,0.97,1.39,1.21,1.97,2.43c0.27,0.37,0.51,1.35,0.72,1.28c-0.1-0.5,0.16-1,0.5-1.28c0.32,0.4,0.65,0.79,0.98,1.17l-0.14,0.04
		l0.2,0.22l0.09-0.09c0.34,0.39,0.68,0.79,1.03,1.17c-0.09,0.32-1.28-0.46-1.07,0.1c0.09-0.04,0.44,0.2,0.59,0.29
		c0.27,0.4-0.35,0.05,0.4,0.78c0.37-0.11,1.44,1.55,0.55,0.16c0.77,0.67,0.7,0.82,1.58,1.63c-0.08-0.28,0.5-0.1,1.14,0.21
		c0.32,0.29,0.66,0.57,0.99,0.85c0.01,0.02,0.02,0.05,0.03,0.07c0.76,0.7,1.37,1.2,1.95,1.71c0.58,0.52,1.19,0.97,1.98,1.53
		c0.09,0.18,0.82,0.77,0.41,0.68c0.27,0.1,0.55,0.13,1.06,0.44c0.83,0.86-1.16-0.67-0.6,0.1c0.18-0.14,1.45,0.61,2.27,0.89
		c-0.09-0.37-1.66-1.04-2.45-1.39c0.08-0.13,0.32-0.15,0.66-0.1c1.74,1.1,3.54,2.08,5.42,2.91c0.52,0.29,1.42,0.67,2.46,1.09
		c0.09,0.02,0.18,0.1,0.26,0.07l0.27-0.1l0.54-0.21c0.35-0.14,0.7-0.27,1.05-0.4c0.68-0.28,1.33-0.53,1.88-0.73
		c0.25-0.19,0.64-0.46,0.68-0.57c1.75-0.88,3.44-1.86,5.07-2.97l0.01,0l0,0c0.54-0.37,1.07-0.76,1.6-1.15
		c0,0.05,0.02,0.08,0.07,0.09c0.27-0.25,0.53-0.51,0.8-0.77c0.01-0.01,0.02-0.02,0.03-0.02c0.04,0.04-0.21,0.35,0.06,0.2
		c-0.02-0.08,0.07-0.24,0.25-0.45c0.41-0.33,0.82-0.66,1.22-1c0.03-0.02,0.06-0.04,0.09-0.06c0.02-0.03,0.03-0.04,0.04-0.07
		c0.33-0.29,0.66-0.58,0.98-0.88c0.04-0.02,0.1-0.06,0.19-0.14c0.06-0.08,0.14-0.16,0.22-0.23c0.66-0.62,1.32-1.27,1.95-1.94
		C54.84,67.66,63.81,58.54,61.43,50.85z M37.72,47.58c0-0.04,0-0.07-0.01-0.11l-0.22,0.13c-0.01,0-0.02,0-0.03,0
		c0-0.06,0.07-0.14,0-0.19c0,0.07-0.04,0.14-0.09,0.19c-0.12,0.01-0.24,0.02-0.36,0.03c-0.01-0.01-0.02-0.01-0.03-0.01
		c0,0,0,0.01-0.01,0.02c-0.11,0.01-0.22,0.01-0.34,0.01c-0.01-0.01-0.02-0.02-0.03-0.02c-0.02,0.02-0.04,0.02-0.06,0.02
		c-3.11,0.07-5.64-0.65-7.55-2.18c-0.15-0.12-0.28-0.25-0.42-0.37c0.06-0.22,0.12-0.45,0.29-0.59c-0.51,0.14,0.01-0.9-0.72-0.79
		c0.02-0.13,0.17-0.04,0.22-0.15c-0.23,0.06-0.34-0.01-0.4-0.26l0.06-0.01c-0.44-0.49-0.41-0.85-0.65-1.53l-0.18,0.16
		c-0.05-0.15,0.01-0.22,0.03-0.31c-0.4,0.01,0.18,0.4-0.24,0.45c0.33-0.41-0.51-1.01-0.04-1.38c-0.09-0.23-0.23,0.17-0.31-0.05
		l0.11-0.12l-0.2,0.01c-0.03-0.16,0.11-0.3,0.23-0.35c0,0.04,0.07,0.09,0.1,0.12c0.08-0.25-0.26-0.51-0.23-0.6l-0.01,0.25
		c-0.35-0.58-0.39-1.42-0.83-1.99l-0.1,0.07c-0.31-0.45,0.04-0.42-0.17-0.95l0.03,0.02c-0.13-0.09-0.21-0.23-0.22-0.38
		c0.15,0.12,0.21-0.3,0.38-0.14c-0.31-0.5-0.22-0.24-0.68-0.54l0.17-0.11c-0.18-0.1-0.27-0.1-0.35-0.38
		c0.19,0.21,0.26-0.21,0.5,0.02c0.17-0.33,0.03-0.54-0.07-0.71c0.02-0.01,0.03-0.03,0.05-0.04l-0.06,0
		c-0.04-0.08-0.06-0.16-0.02-0.24c0.06,0.06,0.11,0.13,0.13,0.22c0.04-0.01,0.1,0,0.17,0.05c0.17,0.31,0.17,0.71,0.63,0.88
		l-0.13,0.4c0.27,0.2,0.14-0.52,0.59-0.19c0.33,0.22-0.14,0.3-0.13,0.47c0.26,0.04,0.74,0.05,0.76,0.51
		c-0.13-0.04-0.15-0.15-0.24-0.22l0.03,0.34c-0.45-0.04-0.52-0.3-0.57,0.08c0.53-0.41,0.77,0.75,1.29,0.31l0.02,0.23
		c-0.03-0.04-0.06-0.02-0.09-0.06c0,0.48,0.53-0.15,0.76,0.23c0.07,0.15,0.08,0.29-0.05,0.27l0.37,0.11
		c0.06,0.08-0.04,0.15-0.1,0.07l0.42,0.32l-0.02,0.01c0.13-0.03,0.36-0.03,0.47-0.03c0.03,0.16-0.1,0.01-0.13,0.09l0.32,0.07
		c-0.03,0.21-0.32,0.18-0.45,0.02c-0.25,0.68,0.28,0.05,0.46,0.72l-0.27-0.11c-0.12,0.4,0.14,0.44,0.23,0.82
		c0.02-0.15-0.09-0.86,0.26-0.79c0.03,0.1,0.11,0.19,0.33,0.19c-0.15,0.19,0.01,0.25,0.18,0.37l-0.21,0.24
		c0.23,0.07,0.32-0.07,0.51-0.1c0.17,0.18,0.06,0.41-0.02,0.61c0.29,0.28,0.02-0.48,0.44-0.25c0.19,0.29,0.46,0.33,0.89,0.4
		c0.12,0.23-0.15,0.14-0.13,0.26l0.31-0.09c0.04,0.03-0.02,0.09-0.05,0.12c0.2,0.02,0.19-0.26,0.46-0.17
		c0.25-0.25,0.18,0.73,0.68,0.57c0.02,0.12-0.14,0.14-0.19,0.26c0.53,0.02,0.44,0.05,0.94-0.05l0.16,0.35
		c-0.07-0.34,0.32-0.41,0.66-0.5c0-0.02,0-0.04-0.01-0.06c0.02,0.01,0.05,0.03,0.07,0.04c-0.02,0.01-0.04,0.01-0.07,0.02l0.01,0.08
		c0.04-0.02,0.07-0.05,0.11-0.07c0.06,0.03,0.12,0.07,0.17,0.1c-0.05,0.08-0.14,0.15-0.25,0.21c-0.01-0.08-0.02-0.16-0.03-0.24
		c-0.19,0.12-0.38,0.26-0.46,0.43c0.04-0.02,0.1-0.02,0.16-0.01c-0.05,0.03-0.09,0.07-0.09,0.1c0,0.04,0.07,0,0.17-0.04l-0.1,0.36
		l0.09-0.11l0.37,0.46c0.52-0.13,1.06-0.42,1.66-0.29c-0.25,0.17-0.22,0.37-0.37,0.64c-0.01-0.36-0.49-0.1-0.74-0.31
		c0.13,0.11,0.03,0.22-0.03,0.25l0.64,0.01c-0.13,0.22,0.02,0.22,0.11,0.38c0.12-0.5,0.53-0.12,0.81-0.16
		c-0.06,0.16-0.18,0.29-0.42,0.13c0.12,0.48,0.62-0.36,0.76,0.06c-0.06-0.03-0.09-0.06-0.15,0c0.21-0.07,0.52,0.21,0.37,0.3
		l-0.06-0.03c0.38,0.27,1.28,0.56,1.51,0.19c-0.02,0.05-0.25,0.45-0.31,0.52c0.24-0.16,0.37-0.37,0.61-0.53
		c0.08-0.06,0.18-0.11,0.27-0.17c0.08,0.03,0.16,0.06,0.24,0.09c-0.07,0.09-0.13,0.18-0.21,0.27c-0.2,0.23-0.41,0.44-0.56,0.49
		c0.02,0.06,0.02,0.13,0.22,0.07c0.02-0.05,0.31-0.45,0.41-0.44c-0.16,0.38-0.04,0.22-0.21,0.53c0.03-0.08,0.67-0.43,0.81-0.37
		c-0.12,0.05-0.64,0.36-0.74,0.39c0.28-0.1,0.59-0.18,0.95-0.25c-0.21,0.03-0.63,0.27-0.81,0.37c0.13-0.07,0.15,0.06,0.28,0.05
		c0.04-0.03,0.08-0.06,0.11-0.09c0.08,0.11,1.6-0.26,2.02-0.1c-0.3,0.02-1.49,0.22-1.51,0.29c0.32-0.04,1.11-0.13,2-0.17
		c0.06,0,0.12-0.01,0.18-0.01c0.17,0.05,0.34,0.1,0.51,0.15c-0.14,0-0.29,0-0.43,0c-0.99,0.02-1.84,0.05-2.29,0.08
		c-0.2,0.06-0.4,0.06-0.26,0.09c-0.33,0.05-0.59,0.04-0.62,0.04c-0.02,0.03-0.04,0.05-0.08,0.07c0.83-0.07,1.03-0.01,1.8-0.04
		c-0.44-0.02-0.84-0.03-1.2-0.03c0.4-0.04,1.01-0.08,1.59-0.08c0.58-0.01,1.14,0.03,1.24,0.08c-0.3,0.03-1.75,0.04-2.05,0.06
		c0.34-0.01,0.85,0.04,0.63,0.05l-0.63-0.01c-0.26,0.03,1.17,0.04,0.91,0.07c-0.05,0-0.11,0.01-0.2,0.01c0,0.02-1.33,0.01-0.65,0.03
		c0.65,0.01,1.95,0.02,3.2,0.04c0.24,0,0.48,0.01,0.71,0.01c0.12,0.03,0.24,0.06,0.37,0.09l-0.48-0.02l0.08,0.02l0.45,0.01
		c0.04,0.01,0.07,0.02,0.11,0.03c-0.07,0.03-0.15,0.05-0.22,0.07c-0.96-0.03-2.06-0.16-2.96-0.16c0.33,0.01,0.67,0.05,0.77,0.06
		c-0.34,0.01-0.97-0.06-0.95-0.01c1.14,0.07-0.38,0.09,0.91,0.08c0.16,0.07-0.4,0.04-0.52,0.1c0.37,0.02,0.92,0.09,1.35,0.17
		c0.16,0.03,0.28,0.06,0.37,0.09c-0.09,0.03-0.19,0.06-0.28,0.09c-0.03,0-0.08-0.01-0.11-0.01c-0.54,0.12-1.16,0.11-1.53,0.22
		c-0.23-0.03-0.61-0.05-0.85-0.15c0.09,0.05,0.29,0.12,0.2,0.16c-0.79-0.13,0.12-0.08-0.76-0.26c0.41,0.12,0.33,0.22,0.4,0.35
		c0.61,0.19,0.5-0.06,0.37-0.17c0.35,0.09,0.62,0.19,0.81,0.28c-0.49,0.13-0.96,0.24-1.43,0.35c-0.19-0.01-0.4,0.01-0.63,0.06
		c-0.32,0.07-0.7,0.11-1,0.05c-0.02,0.07-0.08,0.15-0.08,0.22C38.91,47.45,38.31,47.53,37.72,47.58z M48.02,42.45
		c-0.16-0.03-0.31-0.07-0.47-0.11c-0.04-0.22-0.09-0.45-0.02-0.66c-0.32,0.36-0.44-0.76-0.95-0.25c-0.06-0.11,0.11-0.13,0.09-0.25
		c-0.14,0.18-0.27,0.19-0.45,0.05l0.04-0.04c-0.59-0.09-0.79-0.34-1.39-0.68l-0.02,0.24c-0.13-0.07-0.14-0.15-0.18-0.23
		c-0.26,0.3,0.38,0.14,0.12,0.48c-0.04-0.52-0.97-0.31-0.93-0.87c-0.21-0.07-0.02,0.28-0.23,0.21l-0.01-0.16l-0.11,0.17
		c-0.13-0.07-0.14-0.27-0.1-0.39c0.03,0.02,0.11,0,0.15,0c-0.12-0.22-0.52-0.09-0.56-0.18c0.05,0.06,0.11,0.11,0.17,0.16
		c-0.61-0.07-1.22-0.52-1.87-0.45l0,0.12c-0.49,0.03-0.29-0.23-0.77-0.34l0.03-0.02c-0.13,0.06-0.27,0.06-0.39-0.01
		c0.16-0.07-0.11-0.33,0.1-0.4c-0.53,0-0.29,0.06-0.75,0.3l0.01-0.2c-0.17,0.11-0.22,0.18-0.46,0.12c0.25-0.06-0.02-0.32,0.28-0.42
		c-0.28-0.58-0.87,0.05-0.8-0.6c-0.44,0.34,0.25,0.47,0.09,0.5c0.02,0.2-0.35,0.25-0.46,0.12c-0.14-0.09,0.06-0.72-0.29-0.91
		c0.03,0.02,0.06-0.01,0.09,0.01c-0.07-0.19-0.35,0.01-0.41-0.27c-0.25,0.22-0.2-0.13-0.43,0.2l0.38,0.1
		c-0.24-0.01-0.65,0.29-0.84-0.08c0.06-0.05,0.21-0.09,0.3-0.11c-0.03-0.15-0.21-0.03-0.24-0.19c0.23-0.32,0.44,0.16,0.79,0
		c-0.01-0.2-0.52,0.04-0.2-0.27c-0.43,0.4-0.3-0.26-0.75-0.06l0.14-0.19c-0.06,0.01-0.19,0.05-0.26,0.01l0.29-0.18
		c-0.33,0.1-0.23-0.42-0.48-0.42c0.37,0.23-0.08,0.29-0.01,0.54c-0.64-0.04,0.08-0.69-0.49-0.93c0.09,0.02,0.18,0.29,0.01,0.31
		c-0.07-0.1-0.15-0.26-0.13-0.41c-0.35-0.2-0.09,0.24-0.31,0.25c0.06-0.32-0.23-0.02-0.43-0.06l0.14-0.2
		c-0.27-0.4-0.4,0.33-0.62-0.08l0.35-0.16l-0.23-0.06l0.21-0.19c-0.31,0.02-0.34-0.07-0.47-0.27c-0.06,0.16-0.31,0.33-0.46,0.19
		c-0.01-0.2,0.21-0.12-0.03-0.29c0.15-0.07,0.32-0.17,0.27,0.08c0.06-0.05,0.15-0.07,0.2-0.13c0-0.23-0.25-0.28-0.33-0.34
		c0.02,0.03,0.05,0.07,0.05,0.12l-0.53-0.02c0.01-0.11,0.1-0.13,0.18-0.15c-0.08-0.04-0.2,0.01-0.31-0.06
		c0.16-0.12,0.29-0.28,0.48-0.23l-0.44-0.1c0.04-0.08,0.01-0.31,0.1-0.32c-0.09-0.22-0.64-0.1-0.74-0.41
		c-0.04,0.02-0.08,0.02-0.15,0c-0.16-0.23-0.15-0.55-0.56-0.61l0.15-0.37c-0.22-0.14-0.18,0.48-0.55,0.25
		c-0.28-0.16,0.16-0.28,0.17-0.42c-0.23,0-0.68,0.03-0.63-0.36c0.11,0.03,0.11,0.11,0.19,0.16l0.02-0.28
		c0.41-0.01,0.44,0.19,0.53-0.13c-0.57,0.41-0.53-0.58-1.09-0.2c0.01-0.06,0.02-0.14,0.04-0.19c0.01,0.02,0.05,0.01,0.06,0.04
		c0.05-0.2-0.01-0.09-0.17-0.05c-0.14,0.06-0.33,0.11-0.34,0.01c0.01-0.07,0.1-0.13,0.2-0.13c-0.08-0.01-0.16-0.03-0.24-0.06
		c-0.01-0.04,0.13-0.05,0.13-0.02l-0.16-0.15l0.02,0c-0.14-0.02-0.38-0.09-0.49-0.13c0.09-0.04,0.11,0.03,0.21,0.03
		c-0.09-0.04-0.19-0.09-0.28-0.14c0.21-0.01,0.48,0.11,0.49,0.16c0.4-0.01,0.35-0.01,0.23-0.05c-0.11-0.03-0.3-0.12-0.06-0.12
		l0.15,0.09c0.52,0.09,0.31,0.02,0.66,0.12c-0.1-0.03-0.32-0.11-0.54-0.15c-0.22-0.05-0.44-0.09-0.59-0.17
		c0.06-0.01,0.08-0.02-0.16-0.15c0.37,0.13,0.25,0.06,0.2-0.01l0.51,0.23c-0.17-0.1-0.43-0.23-0.69-0.39
		c0.01-0.06,0.43,0.17,0.79,0.37c0.06-0.02-0.66-0.33-0.82-0.51c0.17,0.03-0.07-0.15-0.5-0.58c0.18,0.08,0.38,0.3,0.55,0.4
		l-0.52-0.45c0.01-0.01,0.16,0.12,0.24,0.18c-0.22-0.22-0.63-0.5-0.84-0.77c-0.36-0.31-0.13-0.18,0.1-0.04
		c0.18,0.09,0.56,0.42,0.23,0.06c0.21,0.18,0.36,0.35,0.61,0.58c-0.32-0.41-0.23-0.3-0.63-0.84l0.48,0.41
		c-0.48-0.44-0.77-0.87-0.87-1.16c-0.05-0.05-0.08-0.08-0.12-0.11c0.03,0.01,0.07,0.02,0.1,0.04c0,0.02,0,0.04,0.02,0.08
		c0.04,0.04,0.08,0.08,0.12,0.12c-0.05-0.08-0.08-0.13-0.11-0.18c0.04,0.02,0.09,0.03,0.13,0.05c0.12,0.15,0.23,0.31,0.34,0.49
		c-0.12-0.11-0.24-0.23-0.36-0.35c0.18,0.28,0.43,0.61,0.7,0.92c-0.04-0.06-0.05-0.1-0.05-0.11c0.06,0.08,0.11,0.15,0.16,0.21
		c0.05,0.06-0.02-0.05-0.09-0.17l0.5,0.58l-0.17-0.22c0.17,0.15,0.33,0.29,0.47,0.42c-0.25-0.49-0.45-1.16-0.02-1.15
		c0.02,0.29,0.19,0.54,0.33,0.94c-0.26-0.47-0.16,0.09-0.32-0.04c0.1,0.08,0.2,0.28,0.22,0.34c-0.01-0.11,0-0.22,0.03-0.32
		c0.13,0.33,0.15,0.27,0.26,0.43c-0.28-0.66,0.05-0.34,0.14-0.47c0.03,0.2,0.04,0.39-0.08,0.29c0.12,0.25,0.11,0.09,0.13-0.07
		c0.02-0.16,0.07-0.31,0.16-0.1c-0.04-0.01-0.06-0.05-0.07,0.04c0.08-0.13,0.29,0.09,0.22,0.22l-0.03-0.01
		c0.05,0.04,0.11,0.07,0.18,0.1c0.07,0.03,0.13,0.03,0.28,0.06c0.26,0.04,0.5,0.01,0.61-0.17c-0.02,0.05-0.25,0.45-0.31,0.52
		c0.28-0.25,0.56-0.48,0.84-0.72c0.07,0.03,0.13,0.06,0.19,0.09c-0.14,0.37-0.29,0.82-0.55,0.85c0.06,0.09,0.14,0.19,0.37,0.15
		c-0.03-0.07,0.08-0.55,0.17-0.54c0.05,0.47,0.06,0.27,0.18,0.71c-0.05-0.11,0.28-0.59,0.41-0.51c-0.06,0.07-0.23,0.52-0.3,0.55
		l0.57-0.36c-0.13,0.05-0.22,0.43-0.21,0.61c0.01-0.12,0.28,0.14,0.4,0.13l-0.08-0.18c0.34,0.25,0.72-0.55,1.08-0.33
		c-0.1,0.08-0.43,0.59-0.27,0.75c0.11-0.12,0.4-0.41,0.7-0.66c0.14,0.07,0.28,0.14,0.42,0.21c-0.35,0.25-0.74,0.49-0.97,0.61
		c0.08,0.19-0.05,0.19,0.16,0.29c0,0.18-0.22,0.15-0.28,0.13l0.43,0.34c0.13-0.31,0.52-0.11,0.63-0.37L35.34,32
		c0.13-0.31,0.74-0.69,1.06-0.46c0.02,0.16-0.35,0.5-0.39,0.6c0.1-0.08,0.43-0.03,0.42,0.06l-0.23,0.08
		c0.13,0.21,0.52-0.23,0.59,0.17c0.07,0.06,0.02,0.51,0.13,0.34c0.04-0.24,0.25-0.72,0.47-1.11c0.09,0.05,0.18,0.1,0.27,0.15
		l-0.08,0.11l0.05,0.03l0.06-0.12c0.09,0.05,0.17,0.1,0.26,0.14c-0.11,0.27-0.51,0.45-0.53,0.7c0.05-0.08,0.18-0.14,0.22-0.15
		c0.04,0.12-0.18,0.23,0.02,0.29c0.2-0.28,0.34,0.23,0.23-0.2c0.22,0.02,0.15,0.17,0.35,0.27c0.03-0.15,0.28-0.34,0.51-0.44
		c0.07,0.04,0.14,0.09,0.21,0.13c0,0.01-0.01,0.03-0.01,0.04c0.34,0.24,0.43,0.5,0.75,0.71c-0.02,0.09,0.08,0.27-0.06,0.35
		c0.08-0.02,0.18-0.09,0.29-0.03c0.03,0.37-0.24-0.1-0.3,0.29c0.12-0.16,0.4-0.06,0.61-0.07c0.13-0.28-0.29-0.26-0.5-0.25
		c0.08-0.13,0.21-0.23,0.34-0.31c0.35,0.23,0.68,0.46,1,0.68c0.14,0.27,0.79,0.59,0.99,0.99c0.08-0.01,0.19-0.01,0.25-0.05
		c0.32,0.25,0.62,0.5,0.91,0.75l0,0.01l0,0c0.1,0.09,0.21,0.18,0.31,0.27c-0.03,0.02-0.06,0.04-0.09,0.07l0.23,0.06
		c0,0,0.01,0.01,0.01,0.01c-0.04,0.04-0.15,0.05-0.14,0.13c0.05-0.05,0.13-0.07,0.2-0.07c0.07,0.07,0.15,0.13,0.21,0.2
		c0,0.02,0.01,0.03,0.01,0.05c0.01,0,0.02,0,0.03-0.01c0.07,0.06,0.13,0.13,0.19,0.19c0,0.01,0,0.03,0.01,0.05
		c0.03,0,0.05,0.02,0.07,0.03C46.71,39.05,47.66,41.1,48.02,42.45z M29.96,39.41c-0.09-0.01-0.31,0.01-0.26-0.13
		C29.95,39.12,29.91,39.26,29.96,39.41z M25.04,34.81c-0.16,0.14-0.4-0.19-0.37-0.38c0-0.05,0.04-0.1,0.11-0.15
		c0.1,0.07,0.21,0.13,0.31,0.2C25.03,34.62,25.12,34.9,25.04,34.81z M30.06,30.54c0.09,0.05,0.33,0.14,0.14,0.11
		C29.8,30.53,29.97,30.54,30.06,30.54z M29.5,28.6c0.02-0.01,0.08,0.02,0.2,0.13C29.76,28.84,29.67,28.77,29.5,28.6z M35.2,42.31
		c-0.09,0.04-0.14-0.03-0.18-0.16C35.08,42.16,35.15,42.21,35.2,42.31z M50.76,64.78c-0.05,0.45-0.34,0.57-0.78,0.88
		C50.17,65.41,50.49,64.84,50.76,64.78z M30.65,71.2c-0.26-0.15-0.53-0.35-0.81-0.61C30.08,70.66,30.36,70.89,30.65,71.2z"/>
	<path class="st0" d="M28.99,38.68l0.08-0.06C29,38.63,28.97,38.65,28.99,38.68z"/>
	<path class="st0" d="M44.03,46.25l0.01,0C43.89,46.24,43.92,46.24,44.03,46.25z"/>
	<polygon class="st0" points="39.21,44.75 39.22,44.75 39.21,44.74 	"/>
	<path class="st0" d="M38.97,44.84c0.18-0.22,0.23-0.16,0.25-0.1c0.11-0.18,0.2-0.37,0.29-0.56C39.3,44.39,39.12,44.6,38.97,44.84z"
		/>
	<path class="st0" d="M34.44,42.27c0-0.05,0.02-0.09,0.04-0.13C34.44,42.16,34.41,42.2,34.44,42.27z"/>
	<path class="st0" d="M25.36,34.8c-0.02,0-0.03,0.01-0.04,0.02l0.05,0L25.36,34.8z"/>
	<path class="st0" d="M41.97,45.68c0.18,0,0.34,0,0.51,0C42.26,45.67,42.07,45.67,41.97,45.68z"/>
	<polygon class="st0" points="38.58,47.47 38.75,47.46 38.5,47.42 	"/>
	<path class="st0" d="M40.94,46.81l-0.42-0.24c0.03,0.04,0.05,0.07,0.07,0.11C40.71,46.71,40.79,46.76,40.94,46.81z"/>
	<path class="st0" d="M41.04,46.5c-0.12-0.07-0.19-0.23-0.36-0.17C40.82,46.4,40.76,46.49,41.04,46.5z"/>
	<path class="st0" d="M40.09,45.26c0.27-0.03,0.14-0.08,0.37-0.11c-0.33,0.02-0.23-0.02-0.79,0.13
		C39.54,45.36,40.28,45.17,40.09,45.26z"/>
	<path class="st0" d="M30,40.29l0.06-0.05c0.03-0.09-0.01-0.12-0.08-0.2L30,40.29z"/>
	<polygon class="st0" points="28.01,38.18 28.16,37.91 27.98,38.14 	"/>
	<path class="st0" d="M26.04,36.54c0.06,0.09,0.18,0.14,0.24,0.22C26.1,36.62,26.31,36.28,26.04,36.54z"/>
	<path class="st0" d="M30.41,30.91l-0.12,0C30.36,30.92,30.41,30.92,30.41,30.91z"/>
	<path class="st0" d="M32.71,33.37l0.23-0.08C32.82,33.18,32.79,33.3,32.71,33.37z"/>
	<path class="st0" d="M38.96,32.64L38.96,32.64C38.95,32.69,38.95,32.68,38.96,32.64z"/>
	<path class="st0" d="M36.94,37.61c0,0.01,0,0.02,0.01,0.03C37.07,37.6,37.02,37.6,36.94,37.61z"/>
	<path class="st0" d="M32.61,30.46c0,0,0.01,0,0.01-0.01l-0.01-0.01L32.61,30.46z"/>
	<path class="st0" d="M32.26,30.48c0.23-0.2,0.28-0.13,0.35-0.04l0.16-0.62L32.26,30.48z"/>
	<path class="st0" d="M32.66,33.39L32.66,33.39c0.02,0,0.03-0.01,0.04-0.02L32.66,33.39z"/>
	<path class="st0" d="M37.46,32.87c-0.03-0.06-0.04-0.12-0.04-0.17C37.39,32.76,37.39,32.82,37.46,32.87z"/>
	<polygon class="st0" points="42.86,35.38 42.97,35.57 42.96,35.49 	"/>
	<path class="st0" d="M40.9,34.44c-0.02-0.08,0.01-0.13,0.03-0.22l-0.19,0.25L40.9,34.44z"/>
	<path class="st0" d="M40.15,34.28c0.07-0.06,0.3,0.01,0.16-0.17C40.25,34.17,39.9,34.14,40.15,34.28z"/>
	<path class="st0" d="M34.64,31.35c-0.2,0.05-0.25-0.06-0.33,0.28c0.19,0.22,0.2-0.26,0.35-0.02
		C34.77,31.53,34.54,31.41,34.64,31.35z"/>
	<path class="st0" d="M30.72,30.68l0.27,0.1l-0.12-0.05C30.73,30.67,30.73,30.67,30.72,30.68z"/>
	<path class="st0" d="M30.88,31.07L30.88,31.07c-0.09,0.03-0.18,0.08-0.26,0.13L30.88,31.07z"/>
	<path class="st0" d="M32.14,32.07c-0.04-0.06-0.15-0.09-0.18-0.16C32.1,32,31.87,32.32,32.14,32.07z"/>
	<path class="st0" d="M54.95,59.27c0.06-0.14,0.12-0.27,0.17-0.41C55.04,59.05,54.98,59.17,54.95,59.27z"/>
	<path class="st0" d="M53.13,61.95l0.03,0.12C53.21,61.92,53.22,61.85,53.13,61.95z"/>
	<path class="st0" d="M33.16,72.35c-0.15-0.14-0.36-0.33-0.68-0.57L33.16,72.35z"/>
	<path class="st0" d="M50.34,49.54l-0.44,0.41C50.71,49.63,50.31,49.67,50.34,49.54z"/>
	<path class="st0" d="M35.43,25.14c0.04,0.03,0.09,0.06,0.13,0.08C35.58,25.2,35.52,25.17,35.43,25.14z"/>
	<path class="st0" d="M24.03,71.51c-0.01-0.01-0.02-0.02-0.03-0.03C24.08,71.6,24.07,71.58,24.03,71.51z"/>
	<path class="st0" d="M21.96,43.25c-0.01-0.03-0.01-0.06-0.02-0.1C21.66,42.77,21.76,42.95,21.96,43.25z"/>
	<path class="st0" d="M16.65,54.96c-0.01-0.01-0.02-0.02-0.03-0.04c0.01,0.02,0.02,0.04,0.03,0.06L16.65,54.96z"/>
	<path class="st0" d="M17.58,56.2c-0.59-0.41-0.74-0.76-0.94-1.22l-0.28,0.76C16.75,55.91,17.17,56.05,17.58,56.2z"/>
	<path class="st0" d="M28.51,51.24c0.11,0.06,0.22,0.11,0.3,0.14C28.69,51.33,28.6,51.29,28.51,51.24z"/>
	<path class="st0" d="M32.37,71.84c0.06,0.08,0.05,0.13,0.05,0.18C32.55,72.05,32.57,72.01,32.37,71.84z"/>
	<path class="st0" d="M50.41,49.46l-0.05,0.02c-0.02,0.02-0.03,0.04-0.03,0.06L50.41,49.46z"/>
	<path class="st0" d="M19.07,68.05c-0.19-0.25-0.26-0.42-0.31-0.53C18.71,67.55,18.75,67.7,19.07,68.05z"/>
	<polygon class="st0" points="44.82,75.82 45.77,75.32 45.47,75.44 	"/>
	<path class="st0" d="M34.58,78.51l-0.16,0.27l0.56,0.1C34.71,78.71,34.71,78.65,34.58,78.51z"/>
	<path class="st0" d="M31.57,77.56c0.15-0.02,1.21,0.49,0.3-0.1C31.72,77.48,30.25,76.86,31.57,77.56z"/>
	<path class="st0" d="M9.73,54.36c-0.68-1.08-0.94-1.75-1.03-1.19c0.47,1.07,0.61,1.18,0.73,1.24c0.05,0.02,0.12,0.08,0.19,0.17
		c0.06,0.08,0.14,0.23,0.24,0.53c0.13,0.12,0.04-0.13-0.05-0.37C9.74,54.54,9.57,54.16,9.73,54.36z"/>
	<path class="st0" d="M9.73,54.36c0.11,0.17,0.17,0.24,0.28,0.38C9.87,54.52,9.81,54.47,9.73,54.36z"/>
	<path class="st0" d="M47.79,66.8l0,0.1c0.15-0.03,0.31-0.15,0.61-0.41L47.79,66.8z"/>
	<polygon class="st0" points="55.08,58.36 55.51,58.18 55.17,58.2 	"/>
	<path class="st0" d="M55.01,50.99c0.21,0.21,0.48,0.42,0.63,0.65C55.26,51.2,55.19,50.67,55.01,50.99z"/>
	<path class="st1" d="M73.76,14.94c0.05-0.01,0.08-0.03,0.09-0.07l-1-0.31l-0.12-0.05c0.05-0.03,0.37,0.03,0.12-0.12
		c-0.05,0.05-0.21,0.04-0.44-0.01l-1.51-0.62c-0.03-0.02-0.05-0.03-0.08-0.05c-0.02-0.01-0.03,0-0.06-0.01l-1.26-0.52
		c-0.04-0.02-0.09-0.05-0.17-0.09c-0.09-0.02-0.18-0.06-0.26-0.09L37.41,0l-2.19,0.9c-0.42,0.13-0.88,0.28-0.84,0.2
		c-1.02,0.53-2.88,0.92-4.57,1.77C29.41,3,30.12,2.7,29.9,2.74c-0.42,0.24-0.95,0.46-1.95,0.82l0.1-0.06
		c-2.78,1.11-4.01,1.49-7.18,2.63l0.28,0.03c-0.68,0.25-0.84,0.26-1.17,0.35c-0.69,0.49,1.9-0.73,1.28-0.25
		c-1,0.1-4.74,1.88-5.47,1.79c-1.04,0.4,0.37,0.05-0.66,0.45l-0.31,0.02L14.6,8.75c-0.69,0.25-1.08,0.27-1.14,0.2
		c0.17-0.06,0.46-0.21,0.63-0.28c-0.93,0.23-2.47,1.01-2.78,1.09l1.02-0.33c-2.78,1.21-6.29,2.43-8.92,3.75l0.24,0
		c-1.01,0.5-1.43,0.64-1.89,0.79c-0.14,0.05-0.28,0.09-0.44,0.15c-0.18,0.06-0.38,0.13-0.6,0.22c-0.11,0.05-0.23,0.1-0.36,0.15
		c-0.06,0.03-0.13,0.06-0.2,0.09c-0.03,0.02-0.07,0.03-0.1,0.05l0,0.11c0.01,0.31,0.03,0.66,0.04,1.08L0.1,15.69
		c0.11,0.76,0.18,1.31,0.22,2.02C0.17,17.09,0.18,18.9,0,18.09c0.38,2.43,0.24,1.2,0.76,2.77l-0.12,0.39
		c0.21,0.53,0.29,0.57,0.48,1.78c-0.27-0.99-0.15,0.81-0.48-0.29c-0.04,2.63,0.9,3.76,0.57,5.02c0.65,1.09-0.12-2.26,0.09-1.61
		c0.06-0.57,0.49,0.91,0.59,1.72c0.13,0.81-0.34,1.49,0.08,3.54c-0.04-0.2-0.08-0.21-0.12-0.41c0.05,0.79,0.47,1.46,0.5,2.44
		c0.4,0.46,0.28,1.21,0.66,1.28l-0.52-1.84c0.35,1.03,0.96,1.93,1.23,3.69c-0.1-0.12-0.33-0.61-0.47-0.95
		c0.03,0.53,0.32,0.95,0.36,1.5c-0.38-0.06-0.68-2.22-1.2-3.3c-0.02,0.58,0.77,2.08,0.26,1.6c0.7,0.69,0.45,2.01,1.22,3.27
		l-0.22-0.03c0.1,0.21-0.31-1.89-0.19-1.49l0.16,1.87c0.28,0.52-0.25-1.45-0.14-0.91c0.06,0.27,0.11,0.54,0.18,0.8
		c0.02,0.1,0.09,0.33,0.17,0.56C3.92,39.7,4,39.92,4.08,40.13c-0.15-0.46-0.26-0.81-0.35-1.08c-0.05-0.17-0.08-0.29-0.09-0.37
		c-0.03-0.17-0.01-0.2,0.04-0.2c0.09,0.01,0.24,0.18,0.16-0.31c0.15,0.34,0.24,0.57,0.34,0.85c0.11,0.33,0.19,0.6,0.25,0.84
		c0.12,0.48,0.18,0.81,0.25,1.2c0.02,0.1,0.04,0.2,0.06,0.31l0.03,0.16c0.02,0.04,0.01,0.15,0.06,0.11C5,41.62,5.2,41.57,5.47,41.49
		c0.27-0.09,0.58-0.16,1.02-0.39C6.7,41,6.94,40.89,7.2,40.76c0.12-0.06,0.24-0.12,0.36-0.19c0.08-0.04,0.16-0.09,0.25-0.14
		c-0.05,0.03-0.1,0.06-0.17,0.09c-0.08,0.04-0.17,0.08-0.26,0.12c-0.25,0.12-0.51,0.23-0.72,0.31c-0.41,0.16-0.58,0.18-0.1-0.11
		c0.22-0.1,0.46-0.2,0.7-0.31l0.3-0.13l0.23-0.09c0.38-0.14,0.74-0.27,0.99-0.36c0.8-0.42,1.11-0.62,1.21-0.69
		c0-0.06-0.03-0.07-0.03-0.04c-0.01,0.03-0.12,0.05-0.21,0.09c-0.39,0.15-0.94,0.37-0.4,0.02c0.14-0.05,0.28-0.09,0.39-0.14
		c0.09-0.01,0.03-0.09,0.03-0.14c-0.01-0.06-0.03-0.11-0.04-0.16c-0.05-0.21-0.13-0.42-0.21-0.63c-0.17-0.36-0.37-0.77-0.62-1.3
		l0.16-0.06c-0.62-2.27,0.09,2.02-0.41-0.05c0.15,0.27,0.32,0.53,0.48,0.8C9,37.3,8.88,36.95,8.76,36.6L9,36.77
		c-0.47-1.12-0.55-1.49-0.81-2.64c-0.03,0.29-0.31-0.08-0.57-1.1c-0.09-0.71,0.23,0.36-0.15-1.08c0.16,0.31,0.37,0.64,0.4,1.29
		c0.06,0.05,0.17,0.3,0.24,0.35c-0.1-0.76-0.47-1.87-0.6-2.39c0.04,0.2,0.1,0.44,0.11,0.57c-0.24-0.68-0.46-1.37-0.68-2.05
		C6.91,29.39,7,29.64,7.09,29.89c-0.11-0.42-0.23-0.71-0.38-1.33c0.13,0.14,0.22,0.09,0.47,0.96C7,28.86,6.81,28.21,6.64,27.54
		c0.01-0.14-0.1-1.05-0.02-0.79c-0.18-1.12-0.7-2.71-0.86-4.21c-0.03-0.08-0.07-0.23-0.12-0.54c-0.09-0.7-0.16-1.37-0.23-2.06
		c-0.04-0.35-0.08-0.7-0.12-1.08c-0.02-0.19-0.05-0.38-0.07-0.57c-0.01-0.1-0.03-0.2-0.04-0.3l-0.02-0.11
		c0-0.06,0.07-0.05,0.12-0.05c0.04-0.01,0.01,0.01,0.09-0.01l0.23-0.07c1.21-0.54-1.25,0.37,0.76-0.53
		c1.42-0.64,0.57-0.14,1.09-0.32c0.69-0.36,1.89-0.98,3.25-1.44c-0.43,0.2-0.78,0.33-1.18,0.51l1.03-0.36
		c-1.18,0.6-2.07,0.94-1.09,0.62c0.06-0.26,3.9-1.65,3.97-1.89l0.68-0.23c-0.19,0.08-0.22,0.1-0.41,0.18
		c1.33-0.44,0.9-0.53,2.58-1.19c0.59-0.22,1-0.36,0.62-0.18l1.28-0.57c0.38-0.15,0.3-0.08-0.08,0.07l1.97-0.82l-0.01,0.01
		c0.29-0.15,0.9-0.45,1.19-0.6c0.51-0.17-0.24,0.12-0.1,0.1l1.07-0.49c0.47-0.12-0.42,0.29-1.18,0.59c1.11-0.2,0.89-0.42,3.15-1.18
		l-1.03,0.44c0.72-0.14,1.51-0.51,2.72-0.88c-0.3,0.06-2.43,0.72-1.26,0.2c0.34-0.12,0.79-0.28,1.41-0.59
		c0.04,0.08,0.66-0.19,1.44-0.5L27.47,8.8c0.84-0.37,0.75-0.4,1.22-0.65c0.95-0.36,1.19-0.34,1.45-0.35
		c1.53-0.57-1.11,0.25,0.67-0.47c1.28-0.45,2.15-0.84,3.62-1.52c0.9-0.3-0.12,0.15,0.22,0.07l0.74-0.42
		c0.19-0.07,0.15-0.01,0.12,0.02c0.64-0.31-0.01-0.17,1.01-0.63c0.05-0.07,0.22-0.14,0.45-0.22c0.14-0.05,0.22-0.07,0.32-0.09
		c0.09-0.05,0.19,0.03,0.28,0.08c0.55,0.3,1.35,0.73,2.01,0.88c0.29,0.18-0.2,0.04-0.13,0.15c1.8,0.6,1.53,0.54,3.05,0.94l1.17,0.65
		c-0.83-0.53,0.38-0.21,1.45,0.05C45.08,7.25,45.04,7.22,45,7.19l0.35,0.14c-0.08-0.02-0.14-0.03-0.22-0.05
		c0.05,0.04,0.11,0.08,0.16,0.12c0.09,0.01,0.18,0.01,0.26,0.02l0.8,0.33c-0.03,0.06-0.26,0.05-0.53,0.02
		c-0.18-0.12-0.35-0.25-0.53-0.37c-0.45-0.04-0.87-0.06-0.84,0.09c0.11,0.02,0.32,0.09,0.55,0.17c-0.12-0.01-0.2-0.01-0.16,0.03
		c0.05,0.04,0.23,0.07,0.51,0.13l0.27,0.39l0.13-0.05l2.03,1.04c1.59,0.4,3.06,0.56,5.49,1.43c-0.67-0.05-0.26,0.27-0.39,0.49
		c-0.55-0.52-1.88-0.67-3.09-1.25c0.63,0.3,0.45,0.34,0.27,0.31l2.29,0.72c-0.13,0.17,0.41,0.34,0.95,0.66
		C53.01,11,55.03,12,55.97,12.25c0,0.16-0.27,0.2-1.35-0.29c1.08,0.81,1.75,0.19,2.83,0.94c-0.27-0.11-0.4-0.19-0.54-0.16
		c0.67,0.14,2.16,0.87,1.75,0.84l-0.27-0.11c1.75,0.79,5.39,2.26,5.8,2c0,0.05-0.41,0.34-0.55,0.37l2.51,0.05l1.01,0.42
		c-0.01,0.39,0.02,0.88-1.05,0.58c0.4,0.22,0.9,0.49,1.84,0.75c-0.27-0.17-0.53-0.76-0.12-0.63c0.9,0.8,0.82,0.56,1.25,1.09
		c-0.06-0.07,0.07-0.18,0.32-0.23c0.05-0.01,0.15-0.04,0.18-0.01c0.03,0.02,0.06,0.06,0.08,0.1c0.04,0.09,0.07,0.22,0.05,0.37
		c-0.08-0.06-0.57,0.16-0.62,0.04c0.08,0.12,0.15,0.33,0.23,0.54c0.06,0.28,0.12,0.61,0.18,0.92c-0.05-0.46-0.45-0.13-0.66,0.26
		c0.13-0.18-0.19,1.56-0.21,2.05l0.23-0.75c-0.36,2.03,0.52,2.12,0.18,4.15c-0.08-0.27-0.62-0.72-0.86,0.3
		c0.11,0.27,0.4,0.93,0.63,1.75c-0.13,0.73-0.28,1.49-0.43,2.26c-0.19-1.05-0.37-2.23-0.45-3.01c-0.27,0.73-0.23,0.18-0.43,1.31
		c-0.24,0.37-0.11-0.66-0.07-0.99c-0.2,0.87-0.4,1.74-0.63,2.6c0.38-0.05-0.09,2.07,0.22,2.04c0.1-0.97,0.18-1.95,0.26-2.92
		c0.37-0.05,0.65,1.85,0.16,3.71c-0.25,0.44-0.54-0.5-0.66-0.48c0.07,0.27-0.2,1.81-0.32,1.96l0.01-0.83
		c-0.38,0.99,0.04,1.79-0.62,2.93c-0.14,0.42-0.81,1.13-0.62,1.26c0.35-0.34,0.95-0.4,1.41-0.28c-0.13,0.48-0.27,0.96-0.42,1.45
		l-0.12-0.1l-0.08,0.28l0.14,0.03c-0.13,0.43-0.25,0.85-0.39,1.29c0.04,0.04,0.09,0.09,0.14,0.13c-0.07,0.06-0.23,0.05-0.46-0.03
		c-0.2-0.23-0.2-0.96-0.55-0.44c0.08,0.02,0.06,0.37,0.08,0.56c0.08,0.05,0.13,0.09,0.17,0.12c0.37,0.47-0.52-0.09,0.57,0.92
		c0.29,0.02,0.58,0.36,0.76,0.59c0.17,0.22,0.22,0.29-0.15-0.4c0.53,0.49,0.61,0.71,0.89,1.17c-0.07,0.08-0.15,0.18-0.22,0.3
		l0.39-0.04c0.06,0.09,0.12,0.18,0.2,0.28c0-0.26,0.46-0.07,0.96,0.33l0.09,0.08l0-0.09c0-0.06,0.01-0.12,0.01-0.18
		c0.07-0.2,0.13-0.39,0.2-0.59l1.19-0.13c-0.13-0.36-0.38-0.79-0.69-1.23c0.23-0.63,0.42-1.17,0.62-1.71
		c0.26-0.72,0.52-1.42,0.76-2.34c0.13-0.15,0.47-1,0.52-0.59c0.01-0.28-0.04-0.55,0.09-1.12c0.57-1.02-0.27,1.28,0.3,0.53
		c-0.18-0.12,0.08-1.55,0.15-2.39c-0.38,0.17-0.5,1.86-0.59,2.7c-0.15-0.04-0.25-0.25-0.32-0.58c0.53-2.07,0.97-4.06,1.34-5.91
		c0.4-1.32,0.87-4.74,1.3-6.7c-0.02-0.29-0.03-0.71-0.09-0.84c0.45-3.6,0.54-5.9,0.55-6.15l0.04-1.31L73.76,14.94z M46.3,8.08
		c0.28,0.1,0.59,0.24,0.92,0.42C46.97,8.47,46.65,8.3,46.3,8.08z M23.51,10.22c0.3-0.22,0.57-0.28,1.08-0.46
		C24.3,9.9,23.74,10.18,23.51,10.22z"/>
	<path class="st2" d="M16.9,12.9c-0.1,0.04-0.22,0.1-0.42,0.19L16.9,12.9z"/>
	<path class="st1" d="M19.99,11.65l0.06-0.06C19.92,11.66,19.86,11.7,19.99,11.65z"/>
	<path class="st1" d="M43.67,7.23c0.17,0.11,0.42,0.25,0.78,0.44L43.67,7.23z"/>
	<path class="st2" d="M5.8,22.59l0.17,0.52C5.84,22.28,5.85,22.64,5.8,22.59z"/>
	<path class="st1" d="M14.1,8.67c0.05-0.01,0.1-0.03,0.15-0.04C14.25,8.61,14.19,8.63,14.1,8.67z"/>
	<path class="st2" d="M3.25,35.61c0-0.03,0-0.06-0.01-0.09C3.05,35.11,3.11,35.29,3.25,35.61z"/>
	<path class="st2" d="M66.08,16.88c0.02,0,0.03,0.01,0.05,0.01c-0.02-0.01-0.04-0.02-0.06-0.03L66.08,16.88z"/>
	<path class="st2" d="M64.59,16.42c0.7,0.02,1.04,0.2,1.48,0.44l-0.25-0.74L64.59,16.42z"/>
	<path class="st1" d="M44.54,7.63c-0.07-0.06-0.08-0.1-0.09-0.14C44.32,7.47,44.31,7.5,44.54,7.63z"/>
	<path class="st2" d="M5.77,22.49l0.01,0.05c0.01,0.03,0.02,0.04,0.03,0.05L5.77,22.49z"/>
	<path class="st2" d="M64.58,40.43c0.03,0.03,0.08,0.08,0.13,0.13c-0.05-0.06-0.1-0.11-0.11-0.13c0.12-0.34,0.23-0.53,0.31-0.66
		C64.86,39.74,64.75,39.9,64.58,40.43z"/>
	<polygon class="st2" points="73.79,19.19 73.94,18.14 73.87,18.45 	"/>
	<path class="st2" d="M72.48,30.13l0.3,0.1l-0.02-0.56C72.65,29.97,72.59,29.98,72.48,30.13z"/>
	<path class="st2" d="M72.16,32.97c0.07,0.13-0.11,1.69,0.19,0.26C72.29,33.1,72.46,31.96,72.16,32.97z"/>
	<path class="st2" d="M68.11,23.51c-0.33,1.3,0.27,0.36-0.08,1.53c0.07,0.33,0.28-0.96,0.34-0.62C68.37,23.6,68.5,23.19,68.11,23.51
		z"/>
	<path class="st2" d="M68.37,24.42c0,0.13,0.01,0.27,0.01,0.42C68.39,24.6,68.38,24.49,68.37,24.42z"/>
	<path class="st1" d="M26.94,9.1l0.05-0.05c-0.14,0.02-0.33,0.09-0.71,0.24L26.94,9.1z"/>
	<polygon class="st2" points="15.92,13.4 16.11,13.33 15.72,13.39 	"/>
	<path class="st2" d="M6.79,17.32c0.37-0.16,0.81-0.35,1.18-0.52C7.17,17.17,6.65,17.25,6.79,17.32z"/>
	<g>
		<path class="st0" d="M115.75,22.28l-0.22-1l-0.74-0.7l-0.74-1.18c-1.93-1.39-3.32-2.25-4.17-2.57l-1.38-0.18l-2.06-0.48l-1.7-0.08
			l-2.06,0.27L101.8,16h-1.1l-0.97-0.17l-1.43,0.43l-2.71-0.17l-1.33,0.17l-0.83,0.58l0.28,0.78c0.25,0.21,0.58,0.47,1.01,0.79
			c0.4,0.32,0.78,0.65,1.14,1l0.37,1.7v0.83l-0.18,0.61v4.28l0.09,0.83l-0.37,2.21l0.19,0.62l-0.1,2.79v0.87l0.37,2.62l-0.27,0.78
			l-0.1,1.35l0.1,0.87v1.87l0.09,0.92l-0.09,0.62c-0.52,0.4-0.94,0.74-1.24,1c-0.34,0.26-0.8,0.64-1.38,1.13l-0.18,0.48l1.01,0.62
			l2.15-0.52l0.88,0.17c0.58,0,1.01,0,1.29,0c0.28,0.03,0.63,0.06,1.06,0.09c0.4,0.03,0.84,0.06,1.33,0.09s0.95,0.06,1.39,0.09
			l1.14,0.26l0.74-0.61l-0.28-0.92c-0.4-0.41-0.79-0.79-1.19-1.14c-0.43-0.32-0.85-0.65-1.24-1l-0.18-0.69l0.27-0.31l0.09-2.23
			l-1.01-0.96l0.1-0.83l0.73-0.96l0.09-1l-0.37-1.97l0.28-1.13l0.92-1l0.68,0.17h4.42l2.15-0.26h1.24l2.8-1.62l0.77-1.27l1.33-0.96
			l0.37-0.74l-0.09-1.48l0.09-1L115.75,22.28z M111.57,25.12l-1.56,1l-0.13,1.79l-1.75,1.44l-1.42,0.44l-1.42-0.09l-1.14-0.09
			l-2.34-0.48v-1.31l0.37-0.83l-0.46-1.79v-1.13l0.36-0.83l0.33-2.06l-0.68-2.13l0.46-0.7l3.31-0.13c0.34,0.06,0.81,0.19,1.41,0.39
			c0.58,0.2,1.12,0.37,1.61,0.52l0.73,0.61l0.74,0.66l-0.09,1.13l0.31,1.18l0.92,0.87l0.46,0.73V25.12z"/>
		<path class="st0" d="M157.2,42.12l-0.46-1.61v-8.42l-0.83-1.61l0.19-0.52l0.37-0.53l0.09-1.09v-1.79l-0.28-1.96l-0.37-0.83
			l0.19-1.66l0.27-0.92l0.1-0.96l-0.37-0.56v-0.79l0.27-0.56l1.01-0.27l1.24-0.87l0.28-0.73L158.17,16l-0.59-0.09l-4.96,0.34h-2.06
			l-0.87,0.18l-0.73,0.48l0.09,0.61l0.96,0.35c0.31,0.35,0.61,0.71,0.92,1.09c0.31,0.38,0.55,0.76,0.73,1.13l-0.27,1l-0.18,2.49
			l0.27,1.69l0.37,0.92c-0.19,0.47-0.33,0.83-0.41,1.1c-0.12,0.26-0.23,0.52-0.33,0.78c-0.12,0.29-0.27,0.67-0.46,1.14l-1.6,0.56
			l-1.14-0.09l-0.74-0.17l-1.24,0.44l-1.65-0.44h-0.78l-2.34-0.18h-2.84l-1.11,0.27l-0.68-0.18l-0.65-0.3l-0.27-1.66v-0.83
			l0.37-0.52l-0.1-0.52l-1.1-1l0.83-1.62l0.09-0.96l-0.09-2.44l0.73-1.35l0.87-0.44l0.74-0.52l0.18-0.79l-0.46-0.04L136.59,16h-1.01
			l-1.15,0.17l-0.91,0.09l-1.06,0.39l-2.34-0.48l-0.82,0.09l-0.5,0.22l-0.37-0.13h-0.92v0.73l0.74,0.7l1.87,1.17l0.28,1.27l0.09,0.7
			l0.28,0.44l-0.19,0.73l0.1,0.79v4.66l0.18,1.23l0.22,0.35l-0.31,1l-0.09,2.06v1.34l0.22,1.45l-0.04,1.48l0.41,1.27
			c0,1.36-0.03,2.38-0.09,3.04l-0.28,0.7l-0.04,1.09l-0.18,0.87l-0.37,0.18c-1.14,0.75-1.95,1.35-2.43,1.79l0.09,0.65l0.46,0.52
			h0.46l0.77,0.18l1.02-0.1l0.68-0.34c0.34,0.03,0.78,0.1,1.33,0.21c0.55,0.11,1.07,0.22,1.56,0.31l0.96-0.08
			c1.37-0.44,2.75-0.7,4.14-0.79l0.46-0.27l-0.74-0.48l-0.87-0.35l-1.6-1.04c-0.09-0.38-0.2-0.91-0.33-1.61
			c-0.12-0.7-0.22-1.24-0.31-1.62l0.27-0.48l-0.18-0.44l0.18-1.22l-0.55-0.3l-0.09-0.7l0.37-0.35v-1.69l0.18-0.83l0.09-1.05
			l0.19-0.69l1.78-0.65l0.87,0.26h1.1c1.29-0.11,2.28-0.17,2.95-0.17l1.14,0.17l3.81-0.17l1.7,0.17l1.6,1.09l0.18,0.62v0.52
			l-0.09,0.75l0.28,2.23l0.31,0.73l-0.13,0.35l-0.18,0.69v2.23l0.22,0.74l-0.04,0.79l-1.01,1.09L150,44.61l-0.5,0.96l0.46,0.48
			l2.3-0.08l3.77,0.52l2.15-0.27l1.1,0.18l0.78-0.35v-0.48c-0.7-0.35-1.5-0.87-2.39-1.57L157.2,42.12z"/>
		<path class="st0" d="M197.14,16.57l-1.65-0.65l-3.13-0.09h-0.96l-0.37,0.73l0.51,0.79c0.7,0.43,1.21,0.84,1.51,1.22
			c0.28,0.38,0.43,0.93,0.46,1.65c-0.52,1.05-2.15,3.55-4.91,7.51l-0.92,0.09c-0.43-0.58-0.82-1.15-1.19-1.7
			c-0.4-0.53-0.68-0.86-0.83-1h-0.92l-0.92-0.52c-0.09-1.25-0.82-3.13-2.2-5.63l0.18-0.73l0.59-0.62l-0.09-0.69l0.28-0.75
			l-0.65-0.52l-1.69,0.09l-3.39,0.74l-1.52-0.22c-0.37,0.04-0.87,0.05-1.51,0.05c-0.67,0.03-1.24,0.09-1.7,0.17
			c-0.46,0.09-0.95,0.26-1.46,0.52l0.55,0.52l1.88,0.92l0.18,0.79c1.62,1.31,2.93,2.53,3.94,3.66c0.98,1.16,1.82,2.59,2.53,4.27
			l1.23,0.57l0.46,0.87l0.19,0.82c0.7,0.55,1.21,1.05,1.51,1.49c0.31,0.43,0.6,1.07,0.87,1.92v4.8l-0.19,1.61
			c0.13,1.19,0.28,2.15,0.46,2.87l-0.09,0.79l-1.33,1.79l-1.23,0.52l-0.46,0.39l0.64,0.52l3.4-0.26h1.61l3.4,0.26h1.98l0.73-0.17
			v-0.92c-0.39-0.44-0.81-0.85-1.23-1.23c-0.43-0.35-0.77-0.65-1.02-0.92c-0.58-1.72-1.02-3.33-1.32-4.84l0.18-2.13v-5.37
			c0.7-1.11,1.12-1.85,1.24-2.23c0.7-0.67,1.56-1.65,2.57-2.96c1.01-1.31,1.99-2.59,2.94-3.84c0.92-1.22,1.84-2.25,2.76-3.1
			l1.24-0.3l0.45-1.05l-0.82-0.65L197.14,16.57z"/>
		<path class="st0" d="M234.91,16.22c-0.61,0.12-1.47,0.27-2.57,0.44l-1.24-0.21l-0.92-0.35h-1.14l-3.22,0.17
			c-0.18,0.06-1.02,0.31-2.52,0.75l-1.88-0.44l-0.92-0.09l-1.69-0.31h-0.96c-0.46,0.09-0.89,0.2-1.29,0.31
			c-0.43,0.11-0.79,0.2-1.05,0.27l-1.98-0.66c-0.18-0.03-0.35-0.06-0.51-0.09c-0.18,0-0.39,0-0.64,0c-0.31,0-0.74,0.15-1.29,0.44V17
			l0.56,1.44l-0.1,0.7l0.1,0.79l-0.1,1.26l-0.18,0.52v0.58l0.83,0.26l0.77-0.61l0.55-0.65l0.56-0.35c0.4-1.08,1.41-1.85,3.03-2.31
			l0.55-0.31l0.92-0.17c0.8,0.4,1.47,0.88,2.02,1.44l0.19,1l0.55,1.13c-0.03,0.18-0.04,0.41-0.04,0.7
			c-0.03,0.32-0.04,0.63-0.04,0.92c-0.03,0.32-0.06,0.57-0.1,0.74v1.39l0.46,1.09v1.44v1.05l-0.09,0.48l-0.09,4.71l0.18,3.66
			l0.1,0.83l-0.19,0.96v0.56l0.19,0.87l-0.1,1.18c-0.09,0.55-0.24,0.98-0.46,1.27c-0.24,0.29-0.59,0.6-1.05,0.92
			c-0.49,0.32-0.88,0.63-1.19,0.92v0.65l0.64,0.61c0.86-0.29,2.11-0.49,3.76-0.61l5.09,0.09l0.92,0.18h1.32l0.46-0.35l-0.37-0.83
			c-1.1-0.58-1.89-1.15-2.39-1.7c-0.49-0.55-0.88-1.35-1.19-2.39l0.37-1.96v-0.27l-0.19-0.65l0.1-0.96l-0.19-0.53l-0.18-2.7
			l-0.28-0.69l0.09-1.62l0.1-0.52v-2l-0.19-1.05v-2.61l0.19-0.7l-0.1-0.69l-0.09-4.67l0.37-1.17c0.15-0.03,0.29-0.06,0.41-0.09
			c0.09,0,0.23,0,0.41,0c0.37,0,0.75,0.03,1.14,0.09c0.4,0.09,0.72,0.13,0.96,0.13c0.64-0.09,0.98-0.13,1.01-0.13
			c1.05,0.49,1.77,1,2.16,1.52c0.37,0.55,0.75,1.43,1.14,2.62l0.92,0.26l0.69-0.34v-2.14l1.01-2.88l-0.19-1.18
			C236.16,16.09,235.52,16.13,234.91,16.22z"/>
		<path class="st0" d="M282.56,28.08l-0.18-1.17l-0.46-1.14l-1.7-2.44c-0.91-1.48-2.79-3.45-5.64-5.89l-4.55-1.87l-1.47-0.17
			l-3.12,0.17l-1.61,0.09h-1.6c-0.7,0.21-1.5,0.44-2.39,0.7c-0.89,0.29-1.73,0.56-2.52,0.82c-0.8,0.29-1.55,0.61-2.25,0.97
			l-1.29,1.09c-0.34,0.21-1.16,0.98-2.48,2.31l-0.09,0.74c-0.67,0.78-1.19,1.62-1.56,2.52c-0.4,0.9-0.91,2.28-1.52,4.14l0.1,1.27
			l0.18,1.44l0.09,3.93c0.55,0.82,1.03,1.57,1.42,2.27s0.83,1.42,1.29,2.18l1.33,1.09l1.51,2.31c0.31,0.21,1.02,0.69,2.15,1.44
			c1.11,0.79,2.01,1.36,2.71,1.7l3.03,0.27l0.55,0.17h2.76l2.16-0.09l2.52,0.09l2.25-0.87l3.12-1.7l3.13-2.48l1.97-2.7l0.27-0.17
			c0.89-1.77,1.43-2.85,1.61-3.23l0.27-1.88v-2.65l-0.46-1.1L282.56,28.08z M276.13,34.58l-0.46,0.92l-0.92,4.35l-2.94,2.8
			l-2.06,1.09l-1.11,0.44l-2.75,0.69l-0.92-0.52l-1.33-0.17h-1.33l-1.79-0.75l-0.73-0.08l-2.76-1.52l-1.65-2.58l-0.33-1.96
			l0.09-1.62l-0.37-1.79v-1.96l0.28-1.52l-0.09-0.87l-1.01-1.18l0.18-0.96c0.34-0.61,0.66-1.15,0.96-1.62
			c0.28-0.46,0.52-0.97,0.73-1.52l0.74-1.96L258,20.5c0.73-1.11,2.11-2.1,4.14-2.97l1.6-0.44h2.89l1.42,0.27
			c0.19,0.21,0.95,0.92,2.3,2.14c1.31,1.22,2.25,2.24,2.8,3.04c1.62,1.16,2.61,1.93,2.98,2.31l0.13,1.01l-0.41,0.78l-0.18,2.97
			l-0.18,0.44l0.18,1l0.59,0.79l0.09,1.09L276.13,34.58z"/>
		<path class="st0" d="M288.79,22.36v-0.31c0-1.07,0.02-2.18,0.65-3.11l1.01-1.6c0.72-0.87,2.01-1.63,2.9-1.63l0.55,0.08
			c0.17,0,0.24-0.02,0.44-0.08H295c0.73,0,1.2,0.04,1.82,0.56l0.9,0.91l0.55,0.27c0.71,0.48,0.44,1.49,0.92,2.04
			c0.46,0.5,0.64,0.37,0.74,1.06c0.05,0.48,0.07,1.24,0.07,1.73v0.23c-0.04,0.34-0.24,0.93-0.45,1.29c0,0.01-0.03,0.04-0.05,0.1
			c-0.11,0.45-0.45,1.63-0.68,1.87c0,0-0.19,0.06-0.2,0.07c-0.72,0.33-1.01,0.82-1.53,1.1c-0.5,0.27-1.24,0.23-1.76,0.55h-0.79
			c-2.64,0-3.12-1.07-4.9-2.74C289.23,24.04,288.79,23.23,288.79,22.36z M290.02,23.68c0.37,0.76,1,1.39,1.39,1.68
			c0.48,0.37,1.12,0.89,1.91,1.12c0.48,0.15,1.02,0.19,1.51,0.19c0.38,0,0.66-0.02,0.89-0.02c0.31,0,0.58-0.18,0.9-0.38
			c0.06-0.04,0.14-0.02,0.18-0.07c0.51-0.25,0.55-0.24,0.9-0.73c0.46-0.62,0.97-0.77,1.07-1.6c0.06-0.06,0.13-0.6,0.13-0.6
			c0.19-0.58,0.31-0.81,0.31-1.44c0-0.77-0.04-1.38-0.6-1.78c-0.13-0.16-0.13-0.21-0.13-0.28c0-0.89-0.41-1.13-0.85-1.72
			c-1.07-1.43-1.53-0.77-2.79-1.56l-1.54-0.17c-0.01,0-0.8,0.33-1.12,0.52c-1.04,0.69-2.58,3.05-2.7,4.44
			C289.49,21.79,289.6,22.79,290.02,23.68z M293.79,22.4c-0.02,0-0.12-0.04-0.15-0.04l-0.02-0.02c-0.11,0-0.17,0.24-0.17,0.31
			c0,0.02-0.02,0.17-0.02,0.24c0,0.04,0,0.08,0,0.12c0,0.29,0.02,0.68,0.17,0.89c0.14,0.2,0.56,0.15,0.56,0.42
			c0,0.15-0.15,0.23-0.27,0.3c-0.07-0.02-0.14-0.02-0.2-0.02c-0.25,0-0.46,0.06-0.72,0.06c-0.06,0-0.19,0-0.2,0
			c-0.05-0.02-0.37-0.04-0.4-0.04c-0.02-0.02-0.06-0.02-0.1-0.02c-0.1,0-0.24,0.02-0.25,0.02c-0.04-0.03-0.37-0.09-0.46-0.13
			c-0.15-0.02-0.15-0.14-0.15-0.27c0-0.04,0-0.06,0-0.08c0-0.03,0-0.06,0.05-0.09c0.06-0.02,0.37-0.18,0.42-0.2
			c0.01-0.01,0.11-0.08,0.14-0.11c0.08-0.07,0.2-0.41,0.2-0.55v-1.7c0.02-0.05,0.06-0.27,0.06-0.31c0-0.06,0-0.55,0-0.59
			c0-0.03,0.04-0.19,0.04-0.21c0,0,0-0.2,0-0.27c0-0.04,0-0.24,0-0.29c-0.14-0.41-0.95-0.41-0.95-1.07c0-0.31,0.24-0.42,0.52-0.42
			c0.29,0,0.59,0.06,0.89,0.06c0.39,0,0.74-0.12,1.12-0.12c0.02,0,0.08,0.02,0.08,0.02c0.17,0,0.59,0.04,0.61,0.04
			c0.02,0.02,0.37,0.19,0.39,0.2c0.07,0.01,0.5,0.1,0.56,0.1c0.73,0.15,1.06,0.89,1.06,1.57c0,0.03,0,0.13,0,0.13
			c-0.02,0.02-0.1,0.19-0.11,0.21c-0.01,0.02-0.08,0.27-0.1,0.29c-0.2,0.37-0.49,0.69-0.8,0.96c0,0.02-0.02,0.13-0.02,0.15
			c0,0.02,0.02,0.14,0.02,0.15c0,0,0.07,0.11,0.1,0.15c0.02,0.02,0.18,0.15,0.2,0.2c0.02,0.02,0.1,0.17,0.11,0.2
			c0.06,0.11,0.25,0.37,0.35,0.46c0.1,0.07,0.23,0.14,0.29,0.25c0.06,0.1,0.09,0.35,0.21,0.45c0,0,0.09,0.05,0.1,0.06
			c0.03,0,0.27,0.09,0.3,0.1c0.01,0,0.1,0.09,0.1,0.1c0.17,0.13,0.35,0.21,0.35,0.44c0,0.27-0.34,0.31-0.55,0.31
			c-0.47,0-1.3-0.07-1.61-0.5C295.12,23.6,294.63,22.66,293.79,22.4z M293.73,21.61h0.06c0.02,0,0.19-0.04,0.2-0.04
			c0.04-0.03,0.37-0.05,0.41-0.06c0.11-0.05,0.59-0.3,0.69-0.37c0.04-0.03,0.06-0.09,0.06-0.15c0-0.07-0.02-0.14-0.02-0.2
			c0.03-0.02,0.07-0.18,0.07-0.2c0-0.02,0-0.21,0-0.29c0-0.04,0-0.24,0-0.28c-0.08-0.15-0.29-0.36-0.41-0.46
			c-0.25-0.2-0.56-0.2-0.86-0.2c-0.02,0-0.1-0.02-0.16-0.02c-0.07,0-0.15,0.02-0.17,0.06c-0.03,0.04-0.1,0.17-0.1,0.2
			c-0.02,0.11-0.06,0.64-0.06,0.76c0,0.02,0,0.18,0,0.24C293.44,20.82,293.44,21.61,293.73,21.61z"/>
	</g>
	<g>
		<polygon class="st1" points="104.42,59.28 104.2,58.71 103.54,58.6 102.73,58.8 102.1,58.8 101.48,58.84 100.31,58.76 
			99.69,58.84 98.96,58.85 98.36,58.97 97.36,58.76 96.42,58.76 95.34,58.72 94.45,58.73 93.7,58.92 93.95,59.58 94.65,60.15 
			94.86,60.56 94.9,61.14 95.09,62.57 95.13,63.05 95.09,63.44 94.9,63.97 94.9,64.63 94.86,65.31 94.77,65.9 95.06,66.95 
			94.73,68.45 94.89,70.83 94.34,71.76 94.27,71.89 93.88,72.1 93.62,72.63 93.93,73.15 95.15,73.15 95.53,73.03 95.91,72.99 
			96.41,73.11 97.53,73.15 98.51,73.15 98.94,72.67 98.74,72.13 98.11,71.59 97.93,71.31 97.82,70.96 97.78,70.17 97.87,69.77 
			97.73,69.27 97.54,69 97.62,68.88 97.7,68.02 97.91,67.43 97.91,66.69 97.94,66.42 98.19,66.25 98.5,66.22 99.15,66.43 
			99.78,66.88 100.13,67.41 100.57,67.83 101.17,68.13 101.65,67.89 101.71,67.33 101.63,66.96 101.72,66.65 101.58,66.32 
			101.58,65.42 101.71,64.46 101.66,63.82 100.96,63.49 100.32,64 100.1,64.28 99.77,64.53 99.28,64.63 98.39,64.71 98.11,64.61 
			97.96,64.13 97.99,63.74 97.99,63.38 97.79,62.57 97.82,62.23 97.98,62.01 98.12,61.64 98.12,61.04 98.18,60.7 98.39,60.52 
			98.67,60.45 98.94,60.27 99.14,60.2 99.58,60.2 99.94,60.16 101.64,60.57 101.98,60.78 102.2,60.86 102.34,61.12 102.6,61.38 
			102.7,61.58 102.73,61.89 103.05,62.39 103.37,62.72 103.93,62.66 104.38,62.16 104.22,61.61 104.14,60.72 104.26,60.36 		"/>
		<path class="st1" d="M132.22,63.85l-0.24-0.57l-0.77-1.11c-0.44-0.71-1.3-1.62-2.64-2.76l-2.16-0.9l-0.78-0.1l-2.16,0.12h-0.74
			l-1.17,0.33l-1.17,0.38c-0.38,0.14-0.74,0.29-1.11,0.49l-0.56,0.48c-0.11,0.07-0.36,0.26-1.19,1.1l-0.06,0.06l-0.04,0.35
			c-0.3,0.36-0.54,0.75-0.7,1.16c-0.19,0.42-0.43,1.07-0.71,1.93L116,64.85l0.13,1.28l0.04,1.88l0.04,0.06
			c0.25,0.37,0.47,0.71,0.64,1.03c0.18,0.32,0.38,0.66,0.6,1.01l0.64,0.54l0.67,1.03l1.05,0.73c0.52,0.37,0.95,0.64,1.28,0.8
			l1.43,0.14l0.25,0.08l1.35,0.01l0.98-0.04l1.21,0.04l1.11-0.43l1.47-0.81l1.44-1.14l0.93-1.25l0.14-0.09l0.03-0.06
			c0.41-0.82,0.66-1.31,0.74-1.48l0.15-0.98v-1.22l-0.2-0.53l0.2-0.95L132.22,63.85z M119.56,67.15l0-0.86l0.14-0.73l-0.05-0.51
			l-0.44-0.51l0.05-0.28c0.14-0.26,0.28-0.49,0.42-0.7c0.13-0.22,0.25-0.47,0.35-0.74l0.33-0.86l0.64-0.81
			c0.31-0.47,0.91-0.89,1.76-1.26l0.7-0.19l1.25,0l0.58,0.11c0.09,0.09,0.34,0.32,1.01,0.94c0.59,0.55,1.01,1,1.25,1.36l0.06,0.06
			c0.79,0.56,1.13,0.84,1.28,0.98l0.04,0.3l-0.15,0.29l-0.11,1.43l-0.09,0.23l0.1,0.53l0.28,0.41l0.04,0.37l-0.1,0.72l-0.19,0.38
			l-0.43,1.99l-1.27,1.21l-0.89,0.47l-0.48,0.19l-1.17,0.29l-0.34-0.19l-0.74-0.11h-0.56l-0.78-0.32l-0.35-0.05l-1.17-0.64
			l-0.7-1.09l-0.14-0.79l0.04-0.78L119.56,67.15z"/>
		<path class="st1" d="M153.54,70.68l-0.21-0.44c-0.14-1.44-0.46-2.72-0.92-3.78l-0.47-0.42c0.3-0.16,0.66-0.3,1.06-0.42l0.07-0.02
			l0.05-0.06c0.06-0.07,0.24-0.31,0.57-0.73c0.31-0.42,0.55-0.76,0.69-1.03l0.04-0.06l-0.09-1.32l-0.02-0.09
			c-0.42-0.9-0.69-1.45-0.84-1.68c-0.16-0.25-0.38-0.45-0.66-0.61c-0.26-0.14-0.89-0.41-1.92-0.83l-0.48-0.02l-0.39-0.12l-1.52-0.18
			l-1.49,0.11l-0.33,0.1l-0.28-0.14l-1.37,0l-0.56-0.05l-0.08,0.08c-0.19,0.18-0.31,0.38-0.37,0.6l-0.02,0.06l0.01,0.06
			c0.04,0.17,0.15,0.38,0.34,0.64l0.1,0.08c0.3,0.14,0.4,0.23,0.42,0.25c0.02,0.02,0.07,0.13,0.09,0.47l0.01,0.12l0.15,0.11
			l-0.03,0.57l0.17,1.22l-0.08,2.04l0.04,2.71l-0.09,0.73l0,1.19l0.04,1.04l-0.23,0.72l-0.44,0.46l-0.53,0.3l-0.28,0.64l1.07,0.29
			l1.5-0.21l0.92,0.04c0.69,0,1.38-0.04,2.03-0.12l0.68-0.31l-0.55-0.46l-0.82-0.42l-0.24-0.28l-0.2-1.53l-0.25-0.43l-0.08-0.08
			l0.28-0.41v-0.48c0-0.48-0.09-0.98-0.28-1.49c0.05-0.14,0.12-0.29,0.24-0.34c0.1-0.05,0.33-0.11,0.83-0.18l0.61,0.28l0.71,1.03
			l0.12,0.89v0.58l0.01,0.07c0.07,0.23,0.16,0.5,0.28,0.79c0.12,0.29,0.28,0.65,0.51,1.1c0.21,0.43,0.36,0.76,0.44,0.96l0.53,0.55
			l0.89,0.42l1.1-0.65l0.54-0.85l0.36-0.75l-1.11-0.16L153.54,70.68z M147.68,62.5l0.15-0.33l0.23-1.21
			c0.22-0.33,0.35-0.45,0.38-0.48c0.04-0.02,0.18-0.08,0.56-0.1c0.11,0.01,0.25,0.04,0.4,0.07c0.18,0.05,0.33,0.09,0.45,0.12
			c0.09,0.02,0.18,0.05,0.29,0.07c0.36,0.28,0.64,0.57,0.83,0.88c0.19,0.31,0.31,0.71,0.38,1.23c0.16,0.5,0.17,0.61,0.17,0.62
			c0,0.01-0.01,0.06-0.05,0.26l-0.09,0.07l-0.41,0.73l-0.73,0.55l-0.98,0.11l-0.17-0.08l-0.44,0.04l-0.38-0.19l-0.15-0.16v-1.62
			C148.11,62.92,148.05,62.65,147.68,62.5z"/>
		<path class="st1" d="M175.98,66.44l-0.18-0.51l-0.82-0.61l-0.32-0.3l-0.25-0.18l-0.38,0.05l-3.49-1.64l-0.4-0.35l-0.37-0.2
			l-0.16-0.38v-0.55c0.21-0.64,0.53-1.07,0.92-1.28c0.42-0.22,1.02-0.33,1.76-0.33h0.62l0.59,0.16c0.37,0.23,0.69,0.44,0.97,0.62
			c0.26,0.18,0.53,0.36,0.82,0.54c0.07,0.26,0.17,0.46,0.28,0.6c0.13,0.18,0.37,0.4,0.73,0.68l0.13,0.1l0.51-0.28l0.11-1.18
			l-0.43-0.91v-0.24l0.14-0.25l-0.15-0.58l-0.02-0.06c-0.31-0.56-1.4-0.83-3.43-0.83c-2.04,0-3.74,0.43-5.05,1.28l-0.06,0.04
			l-0.33,0.74l-0.38,0.34L167.28,61c-0.25,0.51-0.39,0.99-0.43,1.44l-0.02,0.07l0.06,0.08c0,0,0.01,0.03,0.01,0.14
			c0,0.02-0.01,0.12-0.08,0.47l-0.01,0.04l0,0.04c0.02,0.21,0.11,0.55,0.29,1.04c0.15,0.45,0.23,0.8,0.24,1.06l0.01,0.12l0.52,0.39
			l0.47,0.15c0.32,0.27,0.59,0.41,0.82,0.44l0.05,0.01l0.05-0.02c0.04-0.01,0.06-0.02,0.08-0.02l0.14,0.08l1,0.1l0.28,0.08
			l0.12,0.31l0.07,0.04c0.53,0.32,0.91,0.55,1.15,0.71c0.24,0.16,0.48,0.32,0.72,0.46c0.24,0.15,0.55,0.32,0.91,0.48l0.27,0.14
			c0.05,0.37,0.14,0.73,0.25,1.08c-0.05,0.29-0.13,0.51-0.23,0.67c-0.11,0.18-0.34,0.47-0.69,0.87c-0.18,0.04-0.42,0.1-0.72,0.19
			c-0.31,0.1-0.57,0.17-0.8,0.22c-0.6-0.1-1.03-0.21-1.32-0.34c-0.29-0.11-0.6-0.29-0.91-0.52c-0.33-0.25-0.77-0.54-1.32-0.87
			l-0.17-0.3l-0.39-0.22l-0.12-0.56l-0.83-0.46l-0.56,0.32l-0.13,0.71l0.19,0.18l0.01,0.29l0.07,0.28l-0.08,0.56l0.01,0.78l0.15,0.6
			l0.75,0.47l0.06,0c0.97,0.05,1.8,0.27,2.46,0.65l1.43,0.07c0.62-0.11,1.14-0.19,1.57-0.26c0.44-0.05,0.85-0.14,1.23-0.26h0.26
			l0.09-0.02c0.56-0.22,0.96-0.43,1.23-0.63c0.26-0.19,0.54-0.48,0.82-0.88l0.25-0.28l0.05-0.07c0.26-0.63,0.45-1.15,0.58-1.59
			l0.01-0.05l0-0.05C177.13,68.35,176.71,67.35,175.98,66.44z"/>
		<path class="st1" d="M201.32,71.71L201,71.37l-0.11-0.38l-0.32-0.52l-0.26-0.2l0-0.29l-0.06-0.36l-0.02-0.06
			c-0.08-0.18-0.19-0.46-0.33-0.82c-0.14-0.39-0.26-0.66-0.34-0.82l-0.46-1.1l-0.3-0.48l-0.01-0.51l-0.14-0.59l-0.12-0.25
			l-0.22-0.73l-0.05-0.47l-0.29-0.98l-0.26-0.41l-0.18-0.97l-0.47-1.02l-0.28-0.82V59l-0.36-0.44h-0.58l-0.47,0.36l-0.09,1.6
			l-0.15,0.38c-0.12,0.27-0.2,0.49-0.25,0.64l-0.7,1.53l-0.22,0.61l-0.12,0.46l-0.42,0.65l-0.28,0.95l-0.11,0.3L192.43,67
			l-0.22,0.49l-0.26,0.89l-0.07,0.4l-0.33,0.28l-0.58,0.85l-0.68,1.21l-0.97,0.61l-0.56,0.24l-0.24,0.68l0.84,0.39l1.88,0.18
			l0.51-0.04l0.86,0.08l0.56-0.05l0.25-0.39l-0.11-0.52l-0.25-0.45l-0.37-0.21l-0.31-0.25l-0.07-0.32l0.04-0.4l0.23-0.66l0.25-0.4
			l0.15-0.58l0.12-0.3l0.2-0.37l0.18-0.46l0.11-0.39l0.28-0.23c0.31-0.07,0.8-0.13,1.45-0.18h0.86c0.27,0,0.46,0.05,0.55,0.16
			l0.19,0.22l0.13,0.26v0.42l0.32,0.51l0.04,0.35l0.18,0.42l0.4,0.56l-0.03,0.25l0.16,0.57l0.13,0.25l0.07,0.29l-0.04,0.6
			l-0.18,0.27l-0.51,0.13l-0.61,0.31l0.26,0.61h1.01l1.04-0.08l0.88,0.04h1.58l0.46-0.35l0.07-0.52l-0.36-0.37L201.32,71.71z
			 M196.08,63.89l0,0.4l0.23,0.97l0.04,0.27l-0.03,0.12l-0.36,0.11c-0.14,0-0.26,0.01-0.35,0.03l-0.41-0.07
			c-0.06,0-0.12-0.01-0.23-0.02c-0.01,0-0.03,0-0.04,0l-0.07-0.22l-0.04-0.33v-0.42l0.28-0.78l0.46-0.73l0.1-0.35l0.15-0.03
			l0.17,0.09l0,0.01l-0.22,0.4L196.08,63.89z"/>
		<path class="st1" d="M228.23,59.04l-0.94-0.09l-0.61-0.18l-1.22-0.05l-0.44,0.12l-0.9-0.05l-0.58,0.36l0.35,0.54l0.36,0.33
			l0.89,0.33l0.24,0.37l0.07,0.32l0,0.59l0.04,0.38l0.16,0.45l-0.16,1.77l0.04,0.52l0.18,0.4l0.07,0.4l-0.12,0.49l0.04,0.38
			l-0.16,0.37l-0.13,0.69l0.15,0.67l0.14,0.36l-0.17,0.12l-0.23-0.15L225.11,68l-0.34-0.4l-0.48-0.24L223.92,67l-0.3-0.62
			l-0.48-0.47l-0.27-0.42l-0.04-0.05c-0.21-0.18-0.49-0.46-0.85-0.81c-0.33-0.33-0.63-0.6-0.89-0.79l-0.04-0.25l-1.4-1.52
			l-0.28-0.53l-0.44-0.44c-0.05-0.16-0.09-0.3-0.14-0.41c-0.03-0.08-0.06-0.16-0.1-0.25l0.06-0.09l0.15-0.59l-0.46-0.49l-1.38,0
			l-1.31-0.2l-0.73-0.03l-0.42-0.1l-0.54,0.15v0.69l0.41,0.39l0.76,0.5l0.16,0.38l0.1,0.6l0,1.35l0.04,0.35l-0.13,0.77l0,1.83
			l0.05,0.88l0.11,0.37l-0.17,0.64l-0.01,2.67c-0.11,0.21-0.28,0.56-0.5,1.06l-0.72,0.48l-0.37,0.59l0.67,0.41l1.05,0.2l0.42-0.11
			l0.3,0.1l0.49,0.09l0.99-0.16l1.19,0.25l0.5-0.41l-0.1-0.47l-0.85-0.38l-0.39-0.32l-0.19-0.29l-0.7-0.56L217,70.61l-0.05-1.31
			l-0.11-0.44l0.04-0.22l-0.05-0.46l0.04-1.51l0.26-1.16v-1.52l-0.24-0.71l0.06-0.22l0.27-0.07l0.13,0.07l-0.03,0.29l1.13,1.72
			l0.05,0.06c0.17,0.14,0.53,0.51,1.07,1.09c0.53,0.6,1.02,1,1.47,1.22l0.04,0.07l-0.04,0.41l0.04,0.07
			c0.17,0.31,0.45,0.62,0.8,0.89l0.34,0.44l0.07,0.06c0.36,0.22,0.72,0.59,1.05,1.06l0.21,0.4l0.84,0.73l0.21,0.3l0.21,0.15
			l0.12,0.32v0.44l0.13,0.07c0.44,0.24,0.88,0.4,1.3,0.47l0.09,0.02l0.62-0.36l0.05-0.95l0.04-0.47l-0.13-1.58l-0.08-0.49l0.04-0.42
			l-0.05-3.35l0.09-1.5l-0.12-1.44l0.17-0.65l0.08-0.65l0.67-1.26l0.34-0.07l0.4-0.57L228.23,59.04z"/>
	</g>
</g>
</svg>
